<svg width="60" height="60" viewBox="0 0 60 60" fill="none" xmlns="http://www.w3.org/2000/svg">
<rect x="6.81824" width="3.66279" height="60" fill="white"/>
<rect x="49.3981" width="3.66279" height="60" fill="white"/>
<rect width="3.57663" height="51.5515" transform="matrix(0.701517 -0.712653 0.701517 0.712653 0 7.25031)" fill="white"/>
<rect width="3.57663" height="51.348" transform="matrix(0.701517 0.712653 -0.701517 0.712653 57.491 4.84644)" fill="white"/>
<line x1="7.06824" y1="8.83722" x2="7.06824" y2="14.4186" stroke="black" stroke-width="0.5"/>
<line x1="7.06824" y1="8.83722" x2="7.06824" y2="14.4186" stroke="black" stroke-width="0.5"/>
<line x1="7.06824" y1="8.83722" x2="7.06824" y2="14.4186" stroke="black" stroke-width="0.5"/>
<line x1="7.06824" y1="8.83722" x2="7.06824" y2="14.4186" stroke="black" stroke-width="0.5"/>
<line x1="53.3109" y1="8.83722" x2="53.3109" y2="14.4186" stroke="black" stroke-width="0.5"/>
<line x1="53.3109" y1="8.83722" x2="53.3109" y2="14.4186" stroke="black" stroke-width="0.5"/>
<line x1="53.3109" y1="8.83722" x2="53.3109" y2="14.4186" stroke="black" stroke-width="0.5"/>
<line x1="53.3109" y1="8.83722" x2="53.3109" y2="14.4186" stroke="black" stroke-width="0.5"/>
<line x1="10.7311" y1="12.5582" x2="10.7311" y2="18.1396" stroke="black" stroke-width="0.5"/>
<line x1="10.7311" y1="12.5582" x2="10.7311" y2="18.1396" stroke="black" stroke-width="0.5"/>
<line x1="10.7311" y1="12.5582" x2="10.7311" y2="18.1396" stroke="black" stroke-width="0.5"/>
<line x1="10.7311" y1="12.5582" x2="10.7311" y2="18.1396" stroke="black" stroke-width="0.5"/>
<line x1="49.6481" y1="12.5582" x2="49.6481" y2="18.1396" stroke="black" stroke-width="0.5"/>
<line x1="49.6481" y1="12.5582" x2="49.6481" y2="18.1396" stroke="black" stroke-width="0.5"/>
<line x1="49.6481" y1="12.5582" x2="49.6481" y2="18.1396" stroke="black" stroke-width="0.5"/>
<line x1="49.6481" y1="12.5582" x2="49.6481" y2="18.1396" stroke="black" stroke-width="0.5"/>
</svg>
